<svg width="16" height="14" viewBox="0 0 16 14" fill="none" xmlns="http://www.w3.org/2000/svg">
<path d="M14.7486 4.37347H1.25161C0.824861 4.37347 0.50086 4.72147 0.50086 5.12272C0.50086 5.21122 0.42211 4.68622 1.77136 13.117C1.82911 13.4815 2.14336 13.7485 2.51236 13.7485H13.4886C13.8576 13.7485 14.1719 13.4815 14.2296 13.117C15.5804 4.67947 15.4994 5.21197 15.4994 5.12197C15.4994 4.70347 15.1574 4.37347 14.7486 4.37347ZM14.0256 2.11072H2.00311C1.61011 2.11072 1.25236 2.42722 1.25236 2.86597C1.25236 2.92672 1.24486 2.87797 1.35736 3.62347H14.6714C14.7854 2.86447 14.7756 2.92522 14.7756 2.86672C14.7756 2.43172 14.4239 2.11072 14.0256 2.11072ZM2.04586 1.36072H13.9829C14.0264 1.03372 14.0241 1.04122 14.0241 0.999224C14.0241 0.495974 13.5929 0.248474 13.2734 0.248474H2.75536C2.35336 0.248474 2.00461 0.573224 2.00461 0.998474C2.00461 1.04047 2.00161 1.03072 2.04586 1.36072Z" fill="#3A3541"/>
</svg>
