<svg width="78" height="55" viewBox="0 0 78 55" fill="none" xmlns="http://www.w3.org/2000/svg">
<path d="M39.4375 41.245L30.2266 33.1854V45.0281L39.4375 53.9101L48.6485 45.0281V33.1854L39.4375 41.245Z" fill="#B388FE"/>
<path d="M48.6485 33.1854L39.4375 41.245V53.9101L48.6485 45.3566V33.1854Z" fill="#6E39CB"/>
<path d="M15.259 12.4608V51.9052C15.259 53.0545 14.4014 54.0616 13.2534 54.0043C-5.33393 53.0756 -3.19912 0.371338 12.3806 0.371338H67.0728C67.4495 0.371338 67.8306 0.466807 68.159 0.651402C84.9321 10.0802 77.6484 32.3127 65.7141 34.2162C64.5383 34.4038 63.5733 33.4264 63.5167 32.2371L62.5698 12.3512C62.5113 11.1234 61.4988 10.158 60.2696 10.158H55.3595C54.7488 10.158 54.1631 10.4006 53.7313 10.8325L41.0357 23.528C40.1484 24.4153 38.714 24.4288 37.8102 23.5584L24.5631 10.802C24.134 10.3888 23.5615 10.158 22.9658 10.158H17.5618C16.29 10.158 15.259 11.189 15.259 12.4608Z" fill="#6E39CB"/>
</svg>
